<svg width="24" height="24" xmlns="http://www.w3.org/2000/svg" xmlns:xlink="http://www.w3.org/1999/xlink"><defs><path d="M8.886 12.5c-.516-.753-.804-1.657-.804-2.57 0-.222.02-.443.05-.664-.427.15-.864.23-1.32.23-1.34 0-2.373-.853-2.58-.853C2.97 8.643 3 11.375 3 12.19c0 1.114.933 1.596 1.926 1.596h1.33c.665-.804 1.598-1.256 2.63-1.286zm10.632 6.398c0-2.27-.526-5.755-3.435-5.755-.337 0-1.568 1.396-3.554 1.396-1.986 0-3.217-1.397-3.554-1.397-2.91 0-3.435 3.485-3.435 5.755 0 1.628 1.063 2.602 2.652 2.602h8.675c1.588 0 2.65-.974 2.65-2.602zM9.353 6.07c0-1.415-1.142-2.57-2.54-2.57-1.4 0-2.542 1.155-2.542 2.57 0 1.418 1.142 2.573 2.542 2.573s2.54-1.155 2.54-2.572zm6.988 3.86c0-2.13-1.706-3.86-3.81-3.86-2.105 0-3.812 1.73-3.812 3.86 0 2.128 1.707 3.856 3.81 3.856 2.106 0 3.813-1.728 3.813-3.857zm5.72 2.26c0-.815.03-3.547-1.232-3.547-.21 0-1.24.854-2.58.854-.458 0-.894-.08-1.32-.23.03.22.048.44.048.662 0 .913-.287 1.817-.804 2.57 1.033.03 1.966.482 2.63 1.286h1.33c.994 0 1.927-.482 1.927-1.597zm-1.272-6.12c0-1.415-1.14-2.57-2.54-2.57-1.4 0-2.542 1.155-2.542 2.57 0 1.418 1.14 2.573 2.54 2.573 1.4 0 2.542-1.155 2.542-2.572z" id="a"/></defs><use fill="#776976" xlink:href="#a"/></svg>